<svg width="189" height="40" viewBox="0 0 189 40" fill="none" xmlns="http://www.w3.org/2000/svg">
    <g clip-path="url(#clip0_697_1469)">
        <rect width="40" height="40" rx="20" fill="#33CC66"/>
        <path d="M19.9998 39.2C30.6037 39.2 39.1998 30.6039 39.1998 20C39.1998 9.39612 30.6037 0.799988 19.9998 0.799988C9.39594 0.799988 0.799805 9.39612 0.799805 20C0.799805 30.6039 9.39594 39.2 19.9998 39.2Z" stroke="#2E3031" stroke-width="1.59459"/>
        <path fill-rule="evenodd" clip-rule="evenodd" d="M11.2861 19.1111H16.0122C16.8393 19.1111 17.6073 18.7556 18.1981 18.2222C18.7297 17.6889 19.0842 16.9185 19.0842 16.0297V11.2889V10.4H19.9704H28.7137H29.5999V11.2889V20V20.8889H28.7137H23.9876C23.1605 20.8889 22.3925 21.2445 21.8017 21.7778C21.2701 22.3111 20.9156 23.0815 20.9156 23.9704V28.7111V29.6H20.0294H11.2861H10.3999V28.7704V20.0593V19.1704V19.1111H11.2861ZM16.0122 20.9482H12.1722V27.8815H19.0842V24.0297C19.0842 22.6667 19.6159 21.4815 20.5021 20.5926C21.3882 19.7037 22.6288 19.1704 23.9285 19.1704H27.7685V12.1778H20.9156V16.0297C20.9156 17.3926 20.3839 18.5778 19.4977 19.4667C18.6116 20.4148 17.371 20.9482 16.0122 20.9482Z" fill="white"/>
    </g>
    <ellipse cx="49.5946" cy="19.6" rx="1.59459" ry="1.6" fill="#59E970"/>
    <path d="M62.5836 27H59.6177L64.1369 13.9091H67.7037L72.2164 27H69.2505L65.9714 16.9006H65.8691L62.5836 27ZM62.3983 21.8544H69.4039V24.0149H62.3983V21.8544ZM76.5598 13.9091V27H73.7921V13.9091H76.5598ZM85.3681 13.9091L88.5321 23.8551H88.6536L91.824 13.9091H94.8922L90.3794 27H86.8127L82.2935 13.9091H85.3681ZM99.7454 27.1918C98.7525 27.1918 97.8938 26.9808 97.1694 26.5589C96.4492 26.1328 95.8931 25.5405 95.5011 24.782C95.109 24.0192 94.913 23.1349 94.913 22.1293C94.913 21.1151 95.109 20.2287 95.5011 19.4702C95.8931 18.7074 96.4492 18.1151 97.1694 17.6932C97.8938 17.267 98.7525 17.054 99.7454 17.054C100.738 17.054 101.595 17.267 102.315 17.6932C103.039 18.1151 103.598 18.7074 103.99 19.4702C104.382 20.2287 104.578 21.1151 104.578 22.1293C104.578 23.1349 104.382 24.0192 103.99 24.782C103.598 25.5405 103.039 26.1328 102.315 26.5589C101.595 26.9808 100.738 27.1918 99.7454 27.1918ZM99.7582 25.0824C100.21 25.0824 100.587 24.9545 100.89 24.6989C101.192 24.4389 101.42 24.0852 101.574 23.6378C101.731 23.1903 101.81 22.6811 101.81 22.1101C101.81 21.5391 101.731 21.0298 101.574 20.5824C101.42 20.1349 101.192 19.7812 100.89 19.5213C100.587 19.2614 100.21 19.1314 99.7582 19.1314C99.3022 19.1314 98.9187 19.2614 98.6076 19.5213C98.3008 19.7812 98.0685 20.1349 97.9109 20.5824C97.7575 21.0298 97.6808 21.5391 97.6808 22.1101C97.6808 22.6811 97.7575 23.1903 97.9109 23.6378C98.0685 24.0852 98.3008 24.4389 98.6076 24.6989C98.9187 24.9545 99.3022 25.0824 99.7582 25.0824ZM106.348 27V17.1818H109.071V27H106.348ZM107.716 15.9162C107.311 15.9162 106.964 15.782 106.674 15.5135C106.389 15.2408 106.246 14.9148 106.246 14.5355C106.246 14.1605 106.389 13.8388 106.674 13.5703C106.964 13.2976 107.311 13.1612 107.716 13.1612C108.121 13.1612 108.466 13.2976 108.752 13.5703C109.042 13.8388 109.186 14.1605 109.186 14.5355C109.186 14.9148 109.042 15.2408 108.752 15.5135C108.466 15.782 108.121 15.9162 107.716 15.9162ZM115.689 27.1918C114.683 27.1918 113.818 26.9787 113.094 26.5526C112.373 26.1222 111.819 25.5256 111.432 24.7628C111.048 24 110.856 23.1222 110.856 22.1293C110.856 21.1236 111.05 20.2415 111.438 19.483C111.83 18.7202 112.386 18.1257 113.106 17.6996C113.827 17.2692 114.683 17.054 115.676 17.054C116.532 17.054 117.282 17.2095 117.926 17.5206C118.569 17.8317 119.079 18.2685 119.454 18.831C119.829 19.3935 120.035 20.054 120.074 20.8125H117.504C117.432 20.3224 117.24 19.9283 116.929 19.63C116.622 19.3274 116.219 19.1761 115.721 19.1761C115.299 19.1761 114.93 19.2912 114.615 19.5213C114.304 19.7472 114.061 20.0774 113.886 20.5121C113.711 20.9467 113.624 21.473 113.624 22.0909C113.624 22.7173 113.709 23.25 113.88 23.6889C114.055 24.1278 114.3 24.4624 114.615 24.6925C114.93 24.9226 115.299 25.0376 115.721 25.0376C116.032 25.0376 116.311 24.9737 116.558 24.8459C116.809 24.718 117.016 24.5327 117.178 24.2898C117.344 24.0426 117.453 23.7464 117.504 23.4013H120.074C120.031 24.1513 119.827 24.8118 119.46 25.3828C119.098 25.9496 118.597 26.3928 117.958 26.7124C117.319 27.032 116.562 27.1918 115.689 27.1918ZM126.292 27.1918C125.282 27.1918 124.412 26.9872 123.684 26.5781C122.959 26.1648 122.401 25.581 122.009 24.8267C121.617 24.0682 121.421 23.1712 121.421 22.1357C121.421 21.1257 121.617 20.2393 122.009 19.4766C122.401 18.7138 122.953 18.1193 123.664 17.6932C124.38 17.267 125.22 17.054 126.183 17.054C126.831 17.054 127.434 17.1584 127.992 17.3672C128.554 17.5717 129.044 17.8807 129.462 18.294C129.884 18.7074 130.212 19.2273 130.446 19.8537C130.681 20.4759 130.798 21.2045 130.798 22.0398V22.7876H122.507V21.1001H128.235C128.235 20.7081 128.15 20.3608 127.979 20.0582C127.809 19.7557 127.572 19.5192 127.27 19.3487C126.971 19.174 126.624 19.0866 126.228 19.0866C125.814 19.0866 125.448 19.1825 125.128 19.3743C124.813 19.5618 124.566 19.8153 124.387 20.1349C124.208 20.4503 124.116 20.8018 124.112 21.1896V22.794C124.112 23.2798 124.201 23.6996 124.38 24.0533C124.564 24.407 124.821 24.6797 125.154 24.8714C125.486 25.0632 125.88 25.1591 126.336 25.1591C126.639 25.1591 126.916 25.1165 127.167 25.0312C127.419 24.946 127.634 24.8182 127.813 24.6477C127.992 24.4773 128.128 24.2685 128.222 24.0213L130.74 24.1875C130.613 24.7926 130.35 25.321 129.954 25.7727C129.562 26.2202 129.055 26.5696 128.433 26.821C127.815 27.0682 127.101 27.1918 126.292 27.1918ZM139.048 27H136.083L140.602 13.9091H144.169L148.681 27H145.715L142.436 16.9006H142.334L139.048 27ZM138.863 21.8544H145.869V24.0149H138.863V21.8544ZM154.172 30.8864C153.29 30.8864 152.534 30.7649 151.903 30.522C151.276 30.2834 150.778 29.9574 150.407 29.544C150.036 29.1307 149.796 28.6662 149.685 28.1506L152.203 27.8118C152.28 28.0078 152.401 28.1911 152.568 28.3615C152.734 28.532 152.953 28.6683 153.226 28.7706C153.503 28.8771 153.84 28.9304 154.236 28.9304C154.828 28.9304 155.316 28.7855 155.7 28.4957C156.088 28.2102 156.281 27.7308 156.281 27.0575V25.2614H156.166C156.047 25.5341 155.868 25.7919 155.629 26.0348C155.391 26.2777 155.084 26.4759 154.709 26.6293C154.334 26.7827 153.887 26.8594 153.367 26.8594C152.629 26.8594 151.958 26.6889 151.353 26.348C150.752 26.0028 150.273 25.4766 149.915 24.7692C149.561 24.0575 149.384 23.1584 149.384 22.0717C149.384 20.9595 149.566 20.0305 149.928 19.2848C150.29 18.5391 150.771 17.9808 151.372 17.6101C151.977 17.2393 152.64 17.054 153.36 17.054C153.91 17.054 154.37 17.1477 154.741 17.3352C155.112 17.5185 155.41 17.7486 155.636 18.0256C155.866 18.2983 156.043 18.5668 156.166 18.831H156.269V17.1818H158.972V27.0959C158.972 27.9311 158.768 28.63 158.359 29.1925C157.95 29.755 157.383 30.1768 156.659 30.4581C155.938 30.7436 155.11 30.8864 154.172 30.8864ZM154.23 24.8139C154.669 24.8139 155.039 24.7053 155.342 24.4879C155.649 24.2663 155.883 23.951 156.045 23.5419C156.211 23.1286 156.294 22.6342 156.294 22.0589C156.294 21.4837 156.213 20.9851 156.051 20.5632C155.889 20.1371 155.655 19.8068 155.348 19.5724C155.041 19.3381 154.669 19.2209 154.23 19.2209C153.782 19.2209 153.405 19.3423 153.098 19.5852C152.791 19.8239 152.559 20.1562 152.401 20.5824C152.244 21.0085 152.165 21.5007 152.165 22.0589C152.165 22.6257 152.244 23.1158 152.401 23.5291C152.563 23.9382 152.796 24.2557 153.098 24.4815C153.405 24.7031 153.782 24.8139 154.23 24.8139ZM165.614 27.1918C164.604 27.1918 163.735 26.9872 163.006 26.5781C162.281 26.1648 161.723 25.581 161.331 24.8267C160.939 24.0682 160.743 23.1712 160.743 22.1357C160.743 21.1257 160.939 20.2393 161.331 19.4766C161.723 18.7138 162.275 18.1193 162.987 17.6932C163.703 17.267 164.542 17.054 165.505 17.054C166.153 17.054 166.756 17.1584 167.314 17.3672C167.877 17.5717 168.367 17.8807 168.784 18.294C169.206 18.7074 169.534 19.2273 169.769 19.8537C170.003 20.4759 170.12 21.2045 170.12 22.0398V22.7876H161.83V21.1001H167.557C167.557 20.7081 167.472 20.3608 167.301 20.0582C167.131 19.7557 166.894 19.5192 166.592 19.3487C166.294 19.174 165.946 19.0866 165.55 19.0866C165.137 19.0866 164.77 19.1825 164.45 19.3743C164.135 19.5618 163.888 19.8153 163.709 20.1349C163.53 20.4503 163.438 20.8018 163.434 21.1896V22.794C163.434 23.2798 163.524 23.6996 163.703 24.0533C163.886 24.407 164.144 24.6797 164.476 24.8714C164.808 25.0632 165.203 25.1591 165.659 25.1591C165.961 25.1591 166.238 25.1165 166.49 25.0312C166.741 24.946 166.956 24.8182 167.135 24.6477C167.314 24.4773 167.45 24.2685 167.544 24.0213L170.063 24.1875C169.935 24.7926 169.673 25.321 169.276 25.7727C168.884 26.2202 168.377 26.5696 167.755 26.821C167.137 27.0682 166.423 27.1918 165.614 27.1918ZM174.62 21.3239V27H171.897V17.1818H174.492V18.9141H174.607C174.825 18.343 175.189 17.8913 175.7 17.5589C176.212 17.2223 176.832 17.054 177.561 17.054C178.242 17.054 178.837 17.2031 179.344 17.5014C179.851 17.7997 180.245 18.2259 180.526 18.7798C180.808 19.3295 180.948 19.9858 180.948 20.7486V27H178.225V21.2344C178.23 20.6335 178.076 20.1648 177.765 19.8281C177.454 19.4872 177.026 19.3168 176.48 19.3168C176.114 19.3168 175.79 19.3956 175.509 19.5533C175.232 19.7109 175.014 19.9411 174.857 20.2436C174.703 20.5419 174.624 20.902 174.62 21.3239ZM188.317 17.1818V19.2273H182.404V17.1818H188.317ZM183.746 14.8295H186.469V23.983C186.469 24.2344 186.508 24.4304 186.585 24.571C186.661 24.7074 186.768 24.8033 186.904 24.8587C187.045 24.9141 187.207 24.9418 187.39 24.9418C187.518 24.9418 187.646 24.9311 187.773 24.9098C187.901 24.8842 187.999 24.8651 188.067 24.8523L188.496 26.8786C188.359 26.9212 188.168 26.9702 187.92 27.0256C187.673 27.0852 187.373 27.1214 187.019 27.1342C186.363 27.1598 185.788 27.0724 185.293 26.8722C184.803 26.6719 184.422 26.3608 184.149 25.9389C183.876 25.517 183.742 24.9844 183.746 24.3409V14.8295Z" fill="white"/>
    <defs>
        <clipPath id="clip0_697_1469">
            <rect width="40" height="40" rx="20" fill="white"/>
        </clipPath>
    </defs>
</svg>
